# xmcd
#
# Track frame offsets: 
#        150
#        15563
#        28008
#        40455
#        53833
#        66618
#        78640
#        91883
#        130328
#        146380
#        159535
#        170323
#        181073
#
# Disc length: 2619 seconds
#
# Revision: 2
# Processed by: cddbd v1.5.2PL0 Copyright (c) Steve Scherf et al.
# Submitted via: ExactAudioCopyFreeDBPlugin 1.0
#
DISCID=ab0a390d
DTITLE=Bar-Kays - The Best of the Bar-Kays
DYEAR=1992
DGENRE=Funk
TTITLE0=Son of Shaft
TTITLE1=Montego Bay
TTITLE2=Humpin'
TTITLE3=Sang and Dance
TTITLE4=Midnight Cowboy
TTITLE5=A.J. The Housefly
TTITLE6=In The Hole
TTITLE7=Holy Goast
TTITLE8=I Thank You
TTITLE9=Don't Stop Dancing Part 1
TTITLE10=Don't Stop Dancing Part 2
TTITLE11=Copy Cat
TTITLE12=Memphis Sunrise
EXTD=
EXTT0=
EXTT1=
EXTT2=
EXTT3=
EXTT4=
EXTT5=
EXTT6=
EXTT7=
EXTT8=
EXTT9=
EXTT10=
EXTT11=
EXTT12=
PLAYORDER=
